<?xml version="1.0" standalone="no"?>
<!DOCTYPE svg PUBLIC "-//W3C//DTD SVG 1.1//EN" "http://www.w3.org/Graphics/SVG/1.1/DTD/svg11.dtd">
<!--Generator: Xara Designer (www.xara.com), SVG filter version: 6.6.0.1-->
<svg fill="none" fill-rule="evenodd" stroke="black" stroke-width="0.501" stroke-linejoin="bevel" stroke-miterlimit="10" font-family="Times New Roman" font-size="16" style="font-variant-ligatures:none" xmlns:xlink="http://www.w3.org/1999/xlink" xmlns="http://www.w3.org/2000/svg" version="1.1" overflow="visible" width="26.811pt" height="26.81pt" viewBox="2.763 -839.605 26.811 26.81">
 <defs>
	</defs>
 <g id="Layer 1" transform="scale(1 -1)">
  <path d="M 7.169,816.262 C 6.439,816.922 5.799,817.645 5.25,818.414 C 5.819,817.808 6.458,817.255 7.165,816.771 C 11.992,813.455 18.34,814.403 22.104,818.74 C 24.011,818.185 26.124,818.981 27.155,820.781 C 28.362,822.889 27.63,825.582 25.522,826.79 C 25.382,826.87 25.239,826.941 25.095,827.004 C 25.068,828.887 24.619,830.748 23.781,832.425 C 24.268,830.769 24.427,829.015 24.235,827.279 C 22.418,827.658 20.485,826.853 19.513,825.157 C 18.435,823.275 18.902,820.928 20.514,819.586 C 16.549,815.714 10.41,815.021 5.677,818.273 C 5.447,818.43 5.224,818.593 5.008,818.765 C 1.681,823.755 2.022,830.553 6.231,835.2 C 11.199,840.685 19.684,841.106 25.169,836.138 C 30.654,831.17 31.075,822.685 26.107,817.2 C 21.139,811.715 12.654,811.294 7.169,816.262 Z" fill="#ffffff" stroke-linecap="round" stroke="none" stroke-linejoin="round" stroke-width="0.5" marker-start="none" marker-end="none"/>
 </g>
</svg>
